<?xml version="1.0" encoding="iso-8859-1"?>
<!-- Generator: Adobe Illustrator 16.0.0, SVG Export Plug-In . SVG Version: 6.00 Build 0)  -->
<!DOCTYPE svg PUBLIC "-//W3C//DTD SVG 1.1//EN" "http://www.w3.org/Graphics/SVG/1.1/DTD/svg11.dtd">
<svg xmlns="http://www.w3.org/2000/svg" xmlns:xlink="http://www.w3.org/1999/xlink" version="1.1" id="Capa_1" x="0px" y="0px" width="512px" height="512px" viewBox="0 0 516.301 516.301" style="enable-background:new 0 0 516.301 516.301;" xml:space="preserve">
<g>
	<path d="M459.101,294.5c0-28.7-13.4-55.5-32.5-74.6c15.3-13.4,24.899-30.6,30.6-51.6c0-5.7,1.9-13.4,1.9-21   C449.5,151.1,440,153,430.4,153c-47.8,0-86.101-38.2-86.101-86.1c0-9.6,1.9-19.1,5.7-28.7c-7.7,0-13.399,1.9-21,3.8   c-45.899,11.5-80.3,51.6-80.3,101.4c0,7.7,0,15.3,1.9,23c-17.2-7.7-38.2-13.4-59.3-13.4c-74.6,0-133.9,59.3-133.9,133.899   c0,1.9,0,5.701,0,7.601C23,309.8,0,342.3,0,382.501c0,53.5,42.1,95.6,95.6,95.6h325.1c53.5,0,95.6-42.1,95.6-95.6   C516.5,342.3,493.5,309.8,459.101,294.5z M411.3,208.4c-17.199-11.5-36.3-17.2-57.399-17.2c-21.101,0-38.2,5.7-55.5,15.3   c-5.7-7.6-13.4-15.3-19.101-21c-7.699-11.5-11.5-26.8-11.5-42.1c0-38.2,24.9-68.8,57.4-80.3c0,1.9,0,3.8,0,3.8   c0,57.4,47.8,105.2,105.2,105.2c1.899,0,3.8,0,3.8,0C430.4,185.5,420.8,198.9,411.3,208.4z" fill="#FFFFFF"/>
</g>
<g>
</g>
<g>
</g>
<g>
</g>
<g>
</g>
<g>
</g>
<g>
</g>
<g>
</g>
<g>
</g>
<g>
</g>
<g>
</g>
<g>
</g>
<g>
</g>
<g>
</g>
<g>
</g>
<g>
</g>
</svg>
