<?xml version="1.0" encoding="iso-8859-1"?>
<!-- Generator: Adobe Illustrator 16.0.0, SVG Export Plug-In . SVG Version: 6.00 Build 0)  -->
<!DOCTYPE svg PUBLIC "-//W3C//DTD SVG 1.1//EN" "http://www.w3.org/Graphics/SVG/1.1/DTD/svg11.dtd">
<svg xmlns="http://www.w3.org/2000/svg" xmlns:xlink="http://www.w3.org/1999/xlink" version="1.1" id="Capa_1" x="0px" y="0px" width="512px" height="512px" viewBox="0 0 516.301 516.301" style="enable-background:new 0 0 516.301 516.301;" xml:space="preserve">
<g>
	<path d="M459.101,237.101c0-57.4-47.801-103.3-105.2-103.3c-21,0-38.2,5.7-55.5,15.3c-24.9-32.5-63.1-53.5-107.1-53.5   c-74.6,0-133.9,59.3-133.9,133.9c0,1.9,0,5.7,0,7.6c-34.4,15.3-57.4,47.801-57.4,88c0,53.5,42.1,95.6,95.6,95.6h325.1   c53.5,0,95.6-42.1,95.6-95.6C516.5,284.901,493.5,252.401,459.101,237.101z" fill="#FFFFFF"/>
</g>
<g>
</g>
<g>
</g>
<g>
</g>
<g>
</g>
<g>
</g>
<g>
</g>
<g>
</g>
<g>
</g>
<g>
</g>
<g>
</g>
<g>
</g>
<g>
</g>
<g>
</g>
<g>
</g>
<g>
</g>
</svg>
