<?xml version="1.0" encoding="iso-8859-1"?>
<!-- Generator: Adobe Illustrator 16.0.0, SVG Export Plug-In . SVG Version: 6.00 Build 0)  -->
<!DOCTYPE svg PUBLIC "-//W3C//DTD SVG 1.1//EN" "http://www.w3.org/Graphics/SVG/1.1/DTD/svg11.dtd">
<svg xmlns="http://www.w3.org/2000/svg" xmlns:xlink="http://www.w3.org/1999/xlink" version="1.1" id="Capa_1" x="0px" y="0px" width="512px" height="512px" viewBox="0 0 592.9 592.9" style="enable-background:new 0 0 592.9 592.9;" xml:space="preserve">
<g>
	<g>
		<path d="M162.7,459c0,0-47.8,45.9-47.8,74.6c0,21,15.3,40.201,47.8,40.201s47.8-21,47.8-40.201C210.5,504.9,162.7,459,162.7,459z" fill="#FFFFFF"/>
		<path d="M296.6,478.1c0,0-47.8,45.9-47.8,74.6c0,21,15.3,40.201,47.8,40.201c32.5,0,47.801-21,47.801-40.201    C344.4,524,296.6,478.1,296.6,478.1z" fill="#FFFFFF"/>
		<path d="M430.4,459c0,0-47.801,45.9-47.801,74.6c0,21,15.301,40.201,47.801,40.201s47.8-21,47.8-40.201    C478.2,504.9,430.4,459,430.4,459z" fill="#FFFFFF"/>
		<path d="M497.4,256.3c0-28.7-13.4-55.5-32.5-74.6c15.3-13.4,24.899-30.6,30.6-51.6c0-5.7,1.9-13.4,1.9-21    c-9.601,3.8-19.101,5.7-28.7,5.7c-47.8,0-86.101-38.2-86.101-86.1c0-9.6,1.9-19.1,5.7-28.7c-7.7,0-13.399,1.9-21,3.8    C321.4,15.3,287,55.4,287,105.2c0,7.7,0,15.3,1.9,23c-17.2-7.7-38.2-13.4-59.3-13.4c-74.6,0-133.9,59.3-133.9,133.9    c0,1.9,0,5.7,0,7.6c-34.4,15.3-57.4,47.8-57.4,88.001c0,53.5,42.1,95.6,95.6,95.6H459c53.5,0,95.6-42.1,95.6-95.6    C554.8,304.1,531.8,271.6,497.4,256.3z M449.6,170.2C432.4,158.7,413.3,153,392.2,153c-21.101,0-38.2,5.7-55.5,15.3    c-5.7-7.6-13.4-15.3-19.101-21c-7.699-11.5-11.5-26.8-11.5-42.1c0-38.2,24.9-68.8,57.4-80.3c0,1.9,0,3.8,0,3.8    c0,57.4,47.8,105.2,105.2,105.2c1.899,0,3.8,0,3.8,0C468.7,147.3,459.1,160.7,449.6,170.2z" fill="#FFFFFF"/>
	</g>
</g>
<g>
</g>
<g>
</g>
<g>
</g>
<g>
</g>
<g>
</g>
<g>
</g>
<g>
</g>
<g>
</g>
<g>
</g>
<g>
</g>
<g>
</g>
<g>
</g>
<g>
</g>
<g>
</g>
<g>
</g>
</svg>
