<?xml version="1.0" encoding="UTF-8" standalone="no"?>
<!-- Generator: Adobe Illustrator 16.0.0, SVG Export Plug-In . SVG Version: 6.00 Build 0)  -->

<svg
   xmlns:dc="http://purl.org/dc/elements/1.1/"
   xmlns:cc="http://creativecommons.org/ns#"
   xmlns:rdf="http://www.w3.org/1999/02/22-rdf-syntax-ns#"
   xmlns:svg="http://www.w3.org/2000/svg"
   xmlns="http://www.w3.org/2000/svg"
   xmlns:sodipodi="http://sodipodi.sourceforge.net/DTD/sodipodi-0.dtd"
   xmlns:inkscape="http://www.inkscape.org/namespaces/inkscape"
   version="1.1"
   id="Capa_1"
   x="0px"
   y="0px"
   width="512px"
   height="512px"
   viewBox="0 0 492.5 492.5"
   style="enable-background:new 0 0 492.5 492.5;"
   xml:space="preserve"
   inkscape:version="0.91 r13725"
   sodipodi:docname="doorOpen.svg"><metadata
     id="metadata3416"><rdf:RDF><cc:Work
         rdf:about=""><dc:format>image/svg+xml</dc:format><dc:type
           rdf:resource="http://purl.org/dc/dcmitype/StillImage" /></cc:Work></rdf:RDF></metadata><defs
     id="defs3414" /><sodipodi:namedview
     pagecolor="#ffffff"
     bordercolor="#666666"
     borderopacity="1"
     objecttolerance="10"
     gridtolerance="10"
     guidetolerance="10"
     inkscape:pageopacity="0"
     inkscape:pageshadow="2"
     inkscape:window-width="640"
     inkscape:window-height="480"
     id="namedview3412"
     showgrid="false"
     inkscape:zoom="0.4609375"
     inkscape:cx="256"
     inkscape:cy="256"
     inkscape:window-x="0"
     inkscape:window-y="0"
     inkscape:window-maximized="0"
     inkscape:current-layer="Capa_1" /><g
     id="g3378"
     transform="matrix(-1,0,0,1,492.5,0)"><path
       d="M 285.048,21.72 164.234,0 l 0,21.72 -84.942,0 0,433.358 31.403,0 0,-401.955 53.539,0 0,439.377 208.15,-37.422 0,-61.235 9.421,0 0,61.235 31.403,0 0,-433.358 -128.16,0 z m -82.522,241.409 c -6.997,0 -12.67,-7.381 -12.67,-16.486 0,-9.104 5.673,-16.485 12.67,-16.485 6.997,0 12.67,7.381 12.67,16.485 0,9.105 -5.673,16.486 -12.67,16.486 z m 179.279,81.517 -9.421,0 0,-202.025 9.421,0 0,202.025 z m 0,-251.223 -9.421,0 0,-40.3 9.421,0 0,40.3 z"
       id="path3380"
       inkscape:connector-curvature="0"
       style="fill:#ffffff" /></g><g
     id="g3382" /><g
     id="g3384" /><g
     id="g3386" /><g
     id="g3388" /><g
     id="g3390" /><g
     id="g3392" /><g
     id="g3394" /><g
     id="g3396" /><g
     id="g3398" /><g
     id="g3400" /><g
     id="g3402" /><g
     id="g3404" /><g
     id="g3406" /><g
     id="g3408" /><g
     id="g3410" /></svg>