<?xml version="1.0" encoding="UTF-8" standalone="no"?>
<!-- Generator: Adobe Illustrator 16.0.0, SVG Export Plug-In . SVG Version: 6.00 Build 0)  -->

<svg
   xmlns:dc="http://purl.org/dc/elements/1.1/"
   xmlns:cc="http://creativecommons.org/ns#"
   xmlns:rdf="http://www.w3.org/1999/02/22-rdf-syntax-ns#"
   xmlns:svg="http://www.w3.org/2000/svg"
   xmlns="http://www.w3.org/2000/svg"
   xmlns:sodipodi="http://sodipodi.sourceforge.net/DTD/sodipodi-0.dtd"
   xmlns:inkscape="http://www.inkscape.org/namespaces/inkscape"
   version="1.1"
   id="Capa_1"
   x="0px"
   y="0px"
   width="512px"
   height="512px"
   viewBox="0 0 478.666 478.666"
   style="enable-background:new 0 0 478.666 478.666;"
   xml:space="preserve"
   inkscape:version="0.91 r13725"
   sodipodi:docname="doorClosed.svg"><metadata
     id="metadata3375"><rdf:RDF><cc:Work
         rdf:about=""><dc:format>image/svg+xml</dc:format><dc:type
           rdf:resource="http://purl.org/dc/dcmitype/StillImage" /></cc:Work></rdf:RDF></metadata><defs
     id="defs3373" /><sodipodi:namedview
     pagecolor="#ffffff"
     bordercolor="#666666"
     borderopacity="1"
     objecttolerance="10"
     gridtolerance="10"
     guidetolerance="10"
     inkscape:pageopacity="0"
     inkscape:pageshadow="2"
     inkscape:window-width="1600"
     inkscape:window-height="837"
     id="namedview3371"
     showgrid="false"
     inkscape:zoom="1.3046875"
     inkscape:cx="256"
     inkscape:cy="256"
     inkscape:window-x="-8"
     inkscape:window-y="-8"
     inkscape:window-maximized="1"
     inkscape:current-layer="Capa_1" /><g
     id="g3337"
     transform="matrix(-1,0,0,1,478.667,0)"><path
       d="m 71.553,0 0,478.085 335.561,0.581 L 407.114,0 71.553,0 Z m 31.556,446.583 0,-415.025 272.445,0 0,56.813 -10.781,0 0,-46.285 -250.88,0 0,394.468 250.881,0 0,-46.284 10.781,0 0,56.785 -272.446,-0.472 z m 261.664,-309.124 10.781,0 0,203.721 -10.781,0 0,-203.721 z M 165.787,239.32 c 0,9.148 -7.418,16.566 -16.568,16.566 -9.15,0 -16.568,-7.418 -16.568,-16.566 0,-9.15 7.418,-16.568 16.568,-16.568 9.15,0 16.568,7.418 16.568,16.568 z"
       id="path3339"
       inkscape:connector-curvature="0"
       style="fill:#ffffff" /></g><g
     id="g3341"
     transform="matrix(-1,0,0,1,478.667,0)" /><g
     id="g3343"
     transform="matrix(-1,0,0,1,478.667,0)" /><g
     id="g3345"
     transform="matrix(-1,0,0,1,478.667,0)" /><g
     id="g3347"
     transform="matrix(-1,0,0,1,478.667,0)" /><g
     id="g3349"
     transform="matrix(-1,0,0,1,478.667,0)" /><g
     id="g3351"
     transform="matrix(-1,0,0,1,478.667,0)" /><g
     id="g3353"
     transform="matrix(-1,0,0,1,478.667,0)" /><g
     id="g3355"
     transform="matrix(-1,0,0,1,478.667,0)" /><g
     id="g3357"
     transform="matrix(-1,0,0,1,478.667,0)" /><g
     id="g3359"
     transform="matrix(-1,0,0,1,478.667,0)" /><g
     id="g3361"
     transform="matrix(-1,0,0,1,478.667,0)" /><g
     id="g3363"
     transform="matrix(-1,0,0,1,478.667,0)" /><g
     id="g3365"
     transform="matrix(-1,0,0,1,478.667,0)" /><g
     id="g3367"
     transform="matrix(-1,0,0,1,478.667,0)" /><g
     id="g3369"
     transform="matrix(-1,0,0,1,478.667,0)" /></svg>