<?xml version="1.0" encoding="iso-8859-1"?>
<!-- Generator: Adobe Illustrator 18.0.0, SVG Export Plug-In . SVG Version: 6.00 Build 0)  -->
<!DOCTYPE svg PUBLIC "-//W3C//DTD SVG 1.1//EN" "http://www.w3.org/Graphics/SVG/1.1/DTD/svg11.dtd">
<svg xmlns="http://www.w3.org/2000/svg" xmlns:xlink="http://www.w3.org/1999/xlink" version="1.1" id="Capa_1" x="0px" y="0px" viewBox="0 0 466.342 466.342" style="enable-background:new 0 0 466.342 466.342;" xml:space="preserve" width="512px" height="512px">
<g>
	<path d="M376.702,51.464h-72.534C300.152,22.432,275.188,0,245.069,0h-30.627c-30.119,0-55.083,22.432-59.099,51.464H89.64   c-35.841,0-65,29.159-65,65v65.009c0,35.841,29.159,65,65,65h65.124v53.085c-16.334,18.355-25.257,41.743-25.257,66.536   c0,27.042,10.604,52.392,29.859,71.381c18.911,18.649,43.85,28.869,70.372,28.868c0.478,0,0.96-0.003,1.439-0.01   c26.063-0.363,50.659-10.765,69.257-29.292c18.599-18.527,29.094-43.084,29.553-69.146c0.448-25.482-8.473-49.508-25.242-68.339   l0-53.083h71.956c35.841,0,65-29.159,65-65v-65.009C441.702,80.623,412.543,51.464,376.702,51.464z M411.702,181.473   c0,19.299-15.701,35-35,35h-128.53V81.464h128.53c19.299,0,35,15.701,35,35V181.473z M279.19,316.184   c13.756,13.626,21.144,31.803,20.802,51.183c-0.659,37.507-31.717,68.446-69.231,68.968c-18.979,0.274-36.838-6.917-50.328-20.221   c-13.493-13.307-20.925-31.071-20.925-50.021c0-18.89,7.392-36.615,20.813-49.91c2.844-2.817,4.443-6.654,4.443-10.657v-59.054   h29.991v93.833c-8.871,5.171-14.837,14.78-14.837,25.789c0,16.479,13.359,29.837,29.837,29.837s29.837-13.359,29.837-29.837   c0-11.009-5.966-20.618-14.837-25.789v-93.833h29.99l0,59.054C274.746,309.53,276.345,313.367,279.19,316.184z M54.64,181.473   v-65.009c0-19.299,15.701-35,35-35h128.531v135.009H89.64C70.342,216.473,54.64,200.772,54.64,181.473z M214.442,30h30.627   c13.515,0,24.94,9.084,28.513,21.464h-87.652C189.502,39.084,200.927,30,214.442,30z" fill="#FFFFFF"/>
	<polygon points="104.334,178.45 117.582,178.45 117.582,150.226 144.654,150.226 144.654,139.474 117.582,139.474 117.582,121.906    150.127,121.906 150.127,110.29 104.334,110.29  " fill="#FFFFFF"/>
	<path d="M163.593,148.392c1.216,1.292,2.698,2.331,4.446,3.116c1.748,0.786,3.735,1.178,5.966,1.178   c2.229,0,4.218-0.392,5.966-1.178c1.748-0.785,3.23-1.824,4.446-3.116s2.14-2.799,2.773-4.522c0.634-1.722,0.95-3.521,0.95-5.396   c0-1.925-0.33-3.749-0.988-5.472c-0.658-1.722-1.596-3.23-2.812-4.522s-2.698-2.318-4.446-3.078c-1.748-0.76-3.712-1.14-5.89-1.14   c-2.23,0-4.218,0.38-5.966,1.14c-1.748,0.76-3.23,1.786-4.446,3.078s-2.141,2.8-2.774,4.522c-0.634,1.723-0.949,3.547-0.949,5.472   c0,1.875,0.315,3.674,0.949,5.396C161.452,145.593,162.377,147.1,163.593,148.392z M169.293,132.888   c1.266-1.444,2.837-2.166,4.712-2.166c1.874,0,3.432,0.722,4.674,2.166c1.241,1.444,1.862,3.306,1.862,5.586   c0,2.28-0.621,4.155-1.862,5.624c-1.242,1.47-2.8,2.204-4.674,2.204c-1.875,0-3.446-0.722-4.712-2.166   c-1.268-1.444-1.9-3.306-1.9-5.586C167.392,136.22,168.025,134.332,169.293,132.888z" fill="#FFFFFF"/>
	<path d="M333.75,161.698c-1.281,1.313-2.673,2.385-4.177,3.216c-1.504,0.833-3.088,1.44-4.752,1.824   c-1.665,0.384-3.264,0.576-4.8,0.576c-2.944,0-5.648-0.639-8.111-1.92c-2.465-1.279-4.577-2.976-6.337-5.088   c-1.761-2.112-3.119-4.56-4.079-7.344c-0.96-2.784-1.44-5.679-1.44-8.688c0-2.688,0.415-5.391,1.248-8.112   c0.831-2.719,2.063-5.151,3.696-7.296c1.632-2.144,3.679-3.888,6.144-5.232c2.463-1.344,5.359-2.016,8.688-2.016   c1.535,0,3.104,0.177,4.704,0.528c1.599,0.353,3.135,0.912,4.607,1.68c1.472,0.768,2.847,1.809,4.128,3.12   c1.279,1.313,2.367,2.928,3.265,4.848l10.176-7.008c-2.241-4.416-5.649-8-10.225-10.752c-4.576-2.751-10-4.128-16.271-4.128   c-5.313,0-10.049,0.993-14.208,2.976c-4.161,1.984-7.68,4.576-10.561,7.776c-2.88,3.201-5.072,6.833-6.575,10.896   c-1.505,4.065-2.257,8.176-2.257,12.336c0,4.353,0.816,8.625,2.448,12.816c1.632,4.193,3.903,7.937,6.816,11.232   c2.911,3.297,6.384,5.969,10.416,8.016c4.032,2.049,8.479,3.072,13.344,3.072c2.751,0,5.568-0.353,8.448-1.056   s5.583-1.728,8.111-3.072c2.528-1.344,4.801-2.991,6.816-4.944c2.016-1.951,3.567-4.208,4.656-6.768l-10.849-6.24   C336.053,158.803,335.029,160.387,333.75,161.698z" fill="#FFFFFF"/>
	<path d="M381.5,128.479c-1.216-1.292-2.698-2.318-4.446-3.078c-1.748-0.76-3.712-1.14-5.89-1.14c-2.23,0-4.218,0.38-5.966,1.14   c-1.748,0.76-3.23,1.786-4.446,3.078s-2.141,2.8-2.774,4.522c-0.634,1.723-0.949,3.547-0.949,5.472   c0,1.875,0.315,3.674,0.949,5.396c0.634,1.723,1.559,3.23,2.774,4.522s2.698,2.331,4.446,3.116   c1.748,0.786,3.735,1.178,5.966,1.178c2.229,0,4.218-0.392,5.966-1.178c1.748-0.785,3.23-1.824,4.446-3.116s2.14-2.799,2.773-4.522   c0.634-1.722,0.95-3.521,0.95-5.396c0-1.925-0.33-3.749-0.988-5.472C383.653,131.28,382.716,129.771,381.5,128.479z    M375.838,144.098c-1.242,1.47-2.8,2.204-4.674,2.204c-1.875,0-3.446-0.722-4.712-2.166c-1.268-1.444-1.9-3.306-1.9-5.586   c0-2.33,0.633-4.218,1.9-5.662c1.266-1.444,2.837-2.166,4.712-2.166c1.874,0,3.432,0.722,4.674,2.166   c1.241,1.444,1.862,3.306,1.862,5.586C377.7,140.754,377.079,142.629,375.838,144.098z" fill="#FFFFFF"/>
</g>
<g>
</g>
<g>
</g>
<g>
</g>
<g>
</g>
<g>
</g>
<g>
</g>
<g>
</g>
<g>
</g>
<g>
</g>
<g>
</g>
<g>
</g>
<g>
</g>
<g>
</g>
<g>
</g>
<g>
</g>
</svg>
